PathFileType  4	(X/Y/Z) C:\Users\antoi\Documents\MyRepositories\mobilecap\ResultsAnalysis
DataRate	CameraRate	NumFrames	NumMarkers	Units	OrigDataRate	OrigDataStartFrame	OrigNumFrames
100.0	100.0	5	51	mm	100.0	19	146
Frame#	Time	r_knee			r_shank_antsup			r_ankle			r_calc			r_5meta			r_toe			L_knee			L_shank_antsup			L_ankle			L_calc			L_5meta			L_toe			r_sh2			r_sh3			r_sh4			L_sh2			L_sh3			r_thigh1			r_thigh2			r_thigh3			r_thigh4			r_thigh5			L_thigh1			L_thigh2			L_thigh3			L_thigh4			r.ASIS			r.PSIS			L.ASIS			L.PSIS			C7			R_Shoulder			L_Shoulder			R_Sternum			L_Sternum			R_humerus			R_elbow_med			R_elbow_lat			R_forearm			R_wrist_radius			R_wrist_ulna			L_humerus			L_elbow_med			L_elbow_lat			L_forearm			L_wrist_radius			L_wrist_ulna			R_HJC			L_HJC			R_HJC_reg			L_HJC_reg			
		X1	Y1	Z1	X2	Y2	Z2	X3	Y3	Z3	X4	Y4	Z4	X5	Y5	Z5	X6	Y6	Z6	X7	Y7	Z7	X8	Y8	Z8	X9	Y9	Z9	X10	Y10	Z10	X11	Y11	Z11	X12	Y12	Z12	X13	Y13	Z13	X14	Y14	Z14	X15	Y15	Z15	X16	Y16	Z16	X17	Y17	Z17	X18	Y18	Z18	X19	Y19	Z19	X20	Y20	Z20	X21	Y21	Z21	X22	Y22	Z22	X23	Y23	Z23	X24	Y24	Z24	X25	Y25	Z25	X26	Y26	Z26	X27	Y27	Z27	X28	Y28	Z28	X29	Y29	Z29	X30	Y30	Z30	X31	Y31	Z31	X32	Y32	Z32	X33	Y33	Z33	X34	Y34	Z34	X35	Y35	Z35	X36	Y36	Z36	X37	Y37	Z37	X38	Y38	Z38	X39	Y39	Z39	X40	Y40	Z40	X41	Y41	Z41	X42	Y42	Z42	X43	Y43	Z43	X44	Y44	Z44	X45	Y45	Z45	X46	Y46	Z46	X47	Y47	Z47	X48	Y48	Z48	X49	Y49	Z49	X50	Y50	Z50	X51	Y51	Z51	

19	0.18000000	123.22305	536.82010	-83.01205	156.35066	458.44375	-75.89594	126.53791	98.59882	-108.16004	67.55896	54.75412	-152.95940	276.79459	35.86143	-88.35339	306.13818	67.19250	-146.98958	77.74326	520.08717	-385.09206	19.47248	417.28378	-394.11541	-266.46446	260.58420	-346.54390	-334.93310	303.85167	-302.47675	-269.26823	89.57130	-373.51427	-226.80825	89.90265	-314.06155	164.55744	345.83370	-74.18013	83.83244	453.66759	-48.94365	82.21737	337.91676	-56.33803	-29.64396	492.67543	-400.76647	-123.85394	419.06576	-389.20321	139.00896	860.78661	-42.31507	167.17915	755.55867	-60.67974	120.99774	713.29512	-32.86925	31.41961	825.40306	-33.34812	65.74801	715.27020	-43.26219	114.58940	842.73866	-394.12353	146.00170	709.31501	-399.77771	1.01984	814.73502	-386.35928	39.11693	681.16613	-395.16656	128.39767	1050.65059	-92.22302	-70.77602	1087.11893	-163.83359	119.28525	1024.67793	-348.88609	-73.32864	1077.58061	-267.64327	-54.26616	1593.82689	-243.43238	-16.31826	1563.56114	-75.73476	9.07944	1582.74150	-382.13395	101.33231	1528.90467	-199.51793	108.47477	1526.89316	-255.37813	-63.58861	1299.50895	17.51784	-84.99834	1206.17311	-59.77849	-90.47239	1214.86047	23.02524	-25.08649	1069.25973	57.70698	18.65466	962.85406	62.60005	-27.37698	961.64427	69.76536	56.94928	1353.94682	-512.96170	35.38118	1236.47338	-479.69851	63.75078	1265.63589	-541.38599	221.00732	1183.42023	-539.07384	308.50656	1144.48056	-516.48415	292.75813	1114.12825	-537.80591	41.09982	973.61263	-87.00770	34.07997	951.44490	-316.20301	50.57586	972.61478	-119.87712	46.40798	957.02541	-289.47376	
20	0.19000000	127.91050	536.92760	-82.27340	160.11580	458.11073	-75.25715	127.13841	98.32123	-108.60879	67.48939	54.66880	-153.06914	276.86241	35.85738	-88.26327	306.21118	66.67867	-147.19946	102.03691	523.19515	-385.05113	43.30087	421.03448	-392.96108	-245.16974	269.75797	-344.82166	-312.10139	313.55469	-299.12075	-251.05487	98.76665	-374.05771	-207.15583	96.77750	-315.53590	166.98005	345.37502	-73.86675	87.33896	454.09477	-49.00183	84.40498	338.34541	-56.69796	-4.24529	496.99690	-400.37254	-99.57329	424.92723	-388.35899	147.61062	860.73121	-40.49145	174.68658	755.10922	-59.04762	127.52764	713.45817	-31.76770	39.50742	826.78779	-32.69028	72.40115	716.23895	-42.76611	129.06376	845.59646	-393.54962	164.17981	713.08150	-399.92294	16.20806	814.42470	-385.49266	58.07134	682.13563	-394.63341	139.64105	1051.42168	-90.93157	-59.42584	1088.40474	-162.65647	130.57097	1025.77132	-347.72392	-62.11796	1078.36656	-266.34368	-42.38082	1595.00409	-242.49151	-3.91329	1564.86570	-74.82889	20.74130	1583.60158	-381.46487	113.14452	1529.79955	-198.82904	120.23531	1527.72892	-254.68329	-51.02944	1301.10614	19.22309	-73.40553	1207.80889	-57.79907	-77.90515	1216.46720	25.07153	-11.97751	1071.03057	59.69724	32.08467	964.74390	64.62123	-13.90738	963.43142	71.97280	65.27428	1353.23262	-511.08429	41.95783	1236.35217	-476.79669	70.54221	1264.62858	-538.85132	226.13937	1179.31248	-536.79632	312.97138	1138.62856	-514.27770	296.47187	1108.52952	-535.38409	52.32238	974.53305	-85.81161	45.29747	952.46674	-315.01634	61.63718	974.35064	-118.22316	57.23771	957.92835	-287.80163	
21	0.20000000	132.33253	537.05520	-81.54092	163.75356	457.83552	-74.61284	127.70147	98.04124	-108.97208	67.51072	54.58952	-153.19794	276.93338	35.85665	-88.11741	306.26627	66.24518	-147.32555	125.72916	526.83427	-384.80326	66.80106	425.11528	-391.63820	-223.61805	277.80244	-342.82289	-289.67923	320.53264	-295.22933	-229.25069	107.28875	-374.99111	-184.20814	103.51539	-317.28180	169.28623	344.98240	-73.49408	90.74038	454.56082	-48.96115	86.53763	338.82575	-56.90354	20.37143	501.45721	-399.56141	-75.72950	430.40324	-387.31187	155.93350	860.64014	-38.73369	182.06085	754.66345	-57.55636	133.94966	713.62333	-30.75112	47.42503	828.18056	-32.10020	78.88570	717.24197	-42.28222	143.55005	848.83702	-392.80565	182.24622	717.29374	-399.69756	31.49140	814.65985	-384.83386	77.01706	683.63645	-394.17143	150.70467	1052.18953	-89.57399	-48.18606	1089.70727	-161.56523	141.88121	1027.02073	-346.52550	-50.91547	1079.31646	-265.15421	-30.49051	1596.23111	-241.75746	8.45973	1566.24182	-74.10275	32.38100	1584.37561	-381.03511	124.95682	1530.71600	-198.32082	131.99647	1528.57776	-254.17719	-38.42255	1302.81390	20.87519	-61.79174	1209.47721	-55.80096	-65.30259	1218.19710	27.13074	1.19568	1072.94352	61.74876	45.63492	966.76280	66.74491	-0.36809	965.37618	74.30829	73.54535	1352.36152	-509.26886	48.46167	1236.14621	-473.84007	77.22476	1263.45406	-536.27917	230.94725	1174.82469	-534.55159	317.00105	1132.26167	-512.16932	299.70974	1102.45757	-532.99824	63.35204	975.44111	-84.68845	56.52108	953.64165	-313.92364	72.55575	975.98945	-116.68113	68.09137	958.97546	-286.27058	
22	0.21000000	136.62925	537.19904	-80.81311	167.38572	457.60839	-73.97017	128.20275	97.80579	-109.23302	67.59850	54.56619	-153.32788	277.01077	35.83341	-87.92530	306.31907	65.86202	-147.37707	148.80645	530.88644	-384.33373	89.97029	429.48185	-390.27768	-201.54650	284.35242	-340.60882	-267.49625	324.76318	-291.10921	-204.08081	114.70429	-376.16831	-158.21035	109.77505	-319.07278	171.60384	344.64243	-73.07450	94.17309	455.05783	-48.76846	88.74924	339.35260	-56.89358	44.09416	506.00791	-398.32111	-52.36725	435.36464	-385.97941	164.11379	860.50724	-37.03690	189.41343	754.20043	-56.19207	140.38362	713.79209	-29.79077	55.30352	829.57037	-31.50203	85.31346	718.27010	-41.73290	158.08963	852.42768	-391.92761	200.24357	721.89323	-399.14355	46.88107	815.39346	-384.34861	95.95915	685.61022	-393.80220	161.59347	1052.99131	-88.14119	-37.04524	1091.03198	-160.55631	153.20981	1028.43763	-345.25943	-39.71145	1080.44894	-264.09783	-18.60615	1597.49429	-241.22778	20.76734	1567.71104	-73.56059	43.99073	1585.06376	-380.82879	136.78124	1531.68861	-197.97281	143.75438	1529.46365	-253.84725	-25.78111	1304.64785	22.46170	-50.07498	1211.17325	-53.79807	-52.67501	1220.05877	29.18213	14.42574	1075.01911	63.85143	59.27640	968.93764	68.96795	13.21759	967.50418	76.76265	81.75392	1351.35194	-507.51409	54.90858	1235.87577	-470.83621	83.81788	1262.13881	-533.67014	235.42951	1169.98096	-532.33444	320.57753	1125.40676	-510.15197	302.46357	1095.94446	-530.64287	74.19204	976.36782	-83.62502	67.76479	954.97931	-312.90904	83.35004	977.52867	-115.24296	78.98584	960.19079	-284.86508	
23	0.22000000	140.90919	537.33981	-80.09956	171.07325	457.40644	-73.34643	128.63733	97.64310	-109.40697	67.68645	54.64174	-153.43342	277.09043	35.77899	-87.70520	306.37500	65.50777	-147.37147	171.28575	535.21377	-383.64496	112.85438	434.01742	-388.97022	-178.68573	289.08517	-338.27188	-245.24491	326.36232	-287.10711	-176.02414	120.62441	-377.37074	-129.64507	115.17572	-320.64900	174.00646	344.33378	-72.64035	97.70505	455.56283	-48.43008	91.10779	339.90363	-56.67928	66.91470	510.52047	-396.71373	-29.43171	439.63605	-384.34245	172.28877	860.31693	-35.42551	196.81324	753.69290	-54.95100	146.91605	713.94850	-28.87178	63.25727	830.92499	-30.83891	91.77967	719.28877	-41.08235	172.64874	856.29581	-390.96655	218.14075	726.79670	-398.32750	62.32619	816.54212	-384.00491	114.83146	687.97917	-393.53751	172.32069	1053.82976	-86.63260	-25.98527	1092.36813	-159.60589	164.53747	1030.00992	-343.90612	-28.50982	1081.75606	-263.16919	-6.73494	1598.76361	-240.89766	32.99008	1569.28734	-73.20494	55.56791	1585.66038	-380.82165	148.62115	1532.72971	-197.76587	155.50248	1530.38562	-253.67927	-13.13244	1306.62223	23.97128	-38.20378	1212.90719	-51.80808	-40.04121	1222.05569	31.20231	27.69607	1077.27616	65.99261	72.95749	971.30590	71.28848	26.82963	969.83546	79.32134	89.89100	1350.22245	-505.81097	61.30471	1235.56395	-467.79185	90.33392	1260.71266	-531.02492	239.57948	1164.81229	-530.14320	323.68671	1118.10499	-508.21547	304.72398	1089.03409	-528.31869	84.85717	977.31468	-82.60595	79.02341	956.46706	-311.95381	94.04462	978.95767	-113.88960	89.91072	961.57208	-283.55727	
